<svg id="Layer_1" data-name="Layer 1" xmlns="http://www.w3.org/2000/svg" viewBox="0 0 70.13 95.85"><defs><style>.cls-1{fill:#1d8bf7;}</style></defs><g id="Layer_2" data-name="Layer 2"><path class="cls-1" d="M46,52a1.31,1.31,0,0,1-1.09,1.51,1.32,1.32,0,0,1-.41-2.61h.18A1.22,1.22,0,0,1,46,52Zm-5.9-4.43A1.34,1.34,0,0,0,42.32,49a1.35,1.35,0,0,0-.18-1.67,1.48,1.48,0,0,0-2.07.23Zm6.64-.24c-.43.38-.29,1.23.31,1.9s1.42.9,1.85.52.3-1.24-.3-1.91-1.43-.9-1.86-.51Zm23.42,15A34.33,34.33,0,0,1,44.34,95.55,9.27,9.27,0,0,1,35.46,80a9,9,0,0,1,1.92-1.43h9.07a8.4,8.4,0,0,0,8.4-8.4h0a1.37,1.37,0,0,0-1.37-1.38H18.54a1.38,1.38,0,0,0-1.38,1.38,8.41,8.41,0,0,0,8.41,8.4H33.5a11.65,11.65,0,0,0-.19,15.75,9.26,9.26,0,0,1-7.29.88,34.35,34.35,0,0,1-7.11-62.86,9.55,9.55,0,0,0-2.34,1c-2.73-4.11-6.85-6.63-11.68-8.07l0,0A6.75,6.75,0,0,1,0,18.82v-2.3A1.75,1.75,0,0,1,1.4,14.8l11.72-2.44a1.75,1.75,0,0,0,1.4-1.72V9.13a1.75,1.75,0,0,1,1.37-1.71L28.33,4l2-.45A4.56,4.56,0,0,1,35.06,0a4.61,4.61,0,0,1,4.26,4.44A4.47,4.47,0,0,1,39,6.3a2.38,2.38,0,0,0,.93,2.82A33.14,33.14,0,0,1,54,32.73a9.18,9.18,0,0,0-2.28-.9A34.52,34.52,0,0,1,69.1,54c.21.84.39,1.7.54,2.57a34.24,34.24,0,0,1,.49,5.72Zm-15.32.35A3.76,3.76,0,0,0,51,59.2H34.49L29.71,64a1.5,1.5,0,0,1-2.11,0h0L22.83,59.2H21a3.76,3.76,0,0,0-3.79,3.43,3.68,3.68,0,0,0,3.42,3.91H51.14a3.68,3.68,0,0,0,3.68-3.68c0-.08,0-.16,0-.24Zm-26.52-.94a.52.52,0,0,0,.73,0l2.49-2.49H25.8Zm26.53-6.93c0-3.8-8.42-13-18.81-13s-18.81,8.56-18.81,13A2.21,2.21,0,0,0,19.4,57H52.61a2.21,2.21,0,0,0,2.21-2.2ZM35.7,78.46a16.36,16.36,0,0,1-2.52-.2c.14.08.29.14.42.23l-.1.11h3.88c.15-.09.3-.2.46-.28A17,17,0,0,1,35.7,78.46Z"/></g></svg>