<svg id="Layer_1" data-name="Layer 1" xmlns="http://www.w3.org/2000/svg" viewBox="0 0 70.16 95.86"><defs><style>.cls-1{fill:#1d8bf7;}</style></defs><path class="cls-1" d="M70.13,62.3a34.24,34.24,0,0,0-.49-5.72c-.15-.87-.33-1.73-.54-2.57A34.52,34.52,0,0,0,51.72,31.84a9.34,9.34,0,0,1,2.28.9A33.11,33.11,0,0,0,39.93,9.13,2.38,2.38,0,0,1,39,6.31a4.4,4.4,0,0,0,.32-1.86A4.62,4.62,0,0,0,35.06,0a4.55,4.55,0,0,0-4.73,3.55l-2,.45L15.89,7.43a1.75,1.75,0,0,0-1.37,1.71v1.51a1.75,1.75,0,0,1-1.4,1.72L1.4,14.81A1.75,1.75,0,0,0,0,16.53v2.3a6.76,6.76,0,0,0,4.89,6.45c4.83,1.44,9,4,11.68,8.07a9.49,9.49,0,0,1,2.34-1A34.35,34.35,0,0,0,26,95.21a9.3,9.3,0,0,0,7.29-.88A11.65,11.65,0,0,1,32,80.58a16.42,16.42,0,0,1-1.66-.47.46.46,0,0,0-.56.14c-.38.39-.78.76-1.17,1.13a1.34,1.34,0,0,1-1.9.17l-4-2.54a1.35,1.35,0,0,1-.64-1.83c.17-.51.34-1,.52-1.54a.4.4,0,0,0-.07-.46,18.07,18.07,0,0,1-3.34-4.74.43.43,0,0,0-.44-.27c-.47,0-.94,0-1.41,0a1.85,1.85,0,0,1-1.7-.68c-.42-1.9-.85-3.8-1.27-5.69a1.6,1.6,0,0,1,.86-1.16c.51-.25,1-.54,1.53-.75a.57.57,0,0,0,.39-.62,18.17,18.17,0,0,1,1-5.46.52.52,0,0,0-.16-.63c-.41-.4-.8-.81-1.18-1.24a1.22,1.22,0,0,1-.22-1.57q1.37-2.2,2.78-4.38a1.19,1.19,0,0,1,1.44-.55c.53.16,1.07.31,1.59.52a.75.75,0,0,0,.94-.22,11.08,11.08,0,0,1,1.26-1.09,17.66,17.66,0,0,1,3.14-2,.61.61,0,0,0,.38-.64c0-.55,0-1.11,0-1.67a1.37,1.37,0,0,1,1.15-1.4L34,39.88a1.36,1.36,0,0,1,1.66.79c.24.47.48.94.69,1.43a.7.7,0,0,0,.71.48,17.25,17.25,0,0,1,5.42.94.55.55,0,0,0,.64-.16c.4-.39.8-.78,1.21-1.15A1.24,1.24,0,0,1,45.92,42c1.46.9,2.9,1.82,4.34,2.75a1.14,1.14,0,0,1,.55,1.36c-.17.59-.35,1.18-.56,1.76a.65.65,0,0,0,.17.76,12.17,12.17,0,0,1,1.16,1.32,17.44,17.44,0,0,1,2,3.17.58.58,0,0,0,.6.37c.56,0,1.11,0,1.67,0a1.37,1.37,0,0,1,1.45,1.19c.35,1.55.7,3.1,1,4.64A1.36,1.36,0,0,1,57.56,61c-.48.25-1,.5-1.46.72a.65.65,0,0,0-.45.68,17.8,17.8,0,0,1-.95,5.46.53.53,0,0,0,.15.61c.38.38.75.78,1.12,1.17a1.3,1.3,0,0,1,.17,1.85q-1.26,2-2.54,4a1.33,1.33,0,0,1-1.78.66c-.5-.16-1-.31-1.5-.51a.54.54,0,0,0-.67.17,19.82,19.82,0,0,1-3.48,2.62c-.44.27-1.08.36-1.32.81a3.29,3.29,0,0,0-.08,1.6,1.84,1.84,0,0,1-.71,1.73l-5.69,1.28c-.78-.12-1.13-.69-1.42-1.34-.16-.36-.36-.71-.51-1.08a.55.55,0,0,0-.59-.37c-.42,0-.84,0-1.25-.07a9.26,9.26,0,0,0,9.74,14.55A34.34,34.34,0,0,0,70.16,62.34Z"/><path class="cls-1" d="M50,65.68a15.86,15.86,0,0,0,.37-1.55,14.24,14.24,0,0,0-.1-5.18,14.28,14.28,0,0,0-6.35-9.12A13.62,13.62,0,0,0,39.3,48a14.65,14.65,0,0,0-5.52-.07,13,13,0,0,0-2.54.74A13.72,13.72,0,0,0,27,51.26,13.53,13.53,0,0,0,24.06,55a14.09,14.09,0,0,0-.87,11.81,13.88,13.88,0,0,0,3.7,5.47,14.12,14.12,0,0,0,12.94,3.28,12.58,12.58,0,0,0,2.24-.76h0c-1.26-1.25-2.52-2.5-3.75-3.77a.79.79,0,0,0-.75-.17A8.67,8.67,0,0,1,29.9,68a8.78,8.78,0,0,1-2.35-7.41,6.67,6.67,0,0,1,.25-1.16,1.15,1.15,0,0,1,2-.56c.44.39.84.81,1.25,1.23l2.43,2.42a.65.65,0,0,0,.52.23q1.5,0,3,0c.31,0,.38-.11.37-.39q0-1.44,0-2.88a.73.73,0,0,0-.25-.59l-3.31-3.3-.27-.28c-.84-.94-.52-1.89.72-2.17a9,9,0,0,1,11.11,7.6,9,9,0,0,1,0,2.43.53.53,0,0,0,.15.5l3.8,3.77v.07A14.3,14.3,0,0,0,50,65.68Z"/></svg>