<svg xmlns="http://www.w3.org/2000/svg" width="300.00966" height="55.16699" viewBox="0 0 300.00966 55.16699">
  <defs>
    <style>
      .cls-1 {
        fill: #1d8bf7;
      }

      .cls-2 {
        fill: #fff;
      }
    </style>
  </defs>
  <g id="Layer_2" data-name="Layer 2">
    <g>
      <path class="cls-1" d="M26.46082,29.90663a.75927.75927,0,1,1-.76123-.64119A.70735.70735,0,0,1,26.46082,29.90663Zm-3.39989-2.55274a.76955.76955,0,1,0,1.19216-.12906A.858.858,0,0,0,23.06093,27.35389Zm3.82432-.13792c-.24685.22048-.1683.71117.17544,1.09605.34371.38474.82249.51795,1.06931.29748s.16831-.71117-.17543-1.096S27.13207,26.9955,26.88525,27.216ZM40.367,35.84439A19.77376,19.77376,0,0,1,25.523,54.99781,5.33656,5.33656,0,0,1,20.40951,46.065a5.25066,5.25066,0,0,1,1.10276-.826h5.222a4.837,4.837,0,0,0,4.837-4.83708.79007.79007,0,0,0-.79-.79h-20.112a.79007.79007,0,0,0-.79.79,4.837,4.837,0,0,0,4.837,4.83708h4.56718a6.70474,6.70474,0,0,0-.11364,9.06473,5.30753,5.30753,0,0,1-4.19171.505,19.76957,19.76957,0,0,1-4.09543-36.17945,5.45969,5.45969,0,0,0-1.34539.58842,11.76051,11.76051,0,0,0-6.72362-4.64534l-.027-.00794A3.892,3.892,0,0,1,0,10.83275V9.50723A1.01154,1.01154,0,0,1,.805,8.517L7.55348,7.11125A1.01149,1.01149,0,0,0,8.35866,6.121V5.25513a1.01153,1.01153,0,0,1,.7876-.98637l7.15691-1.95813,1.14856-.26052A2.62271,2.62271,0,0,1,20.18.00535,2.656,2.656,0,0,1,22.63329,2.563a2.60861,2.60861,0,0,1-.19886,1.06345,1.36948,1.36948,0,0,0,.53534,1.6239,19.08174,19.08174,0,0,1,8.08432,13.58607,5.24986,5.24986,0,0,0-1.31609-.51564A19.84974,19.84974,0,0,1,39.77251,31.0735q.18207.73088.30943,1.48149A19.77064,19.77064,0,0,1,40.367,35.84439Zm-8.82174.20122a2.16364,2.16364,0,0,0-2.18341-1.97471h-9.513L17.101,36.81875a.858.858,0,0,1-1.21348,0L13.13963,34.0709H12.08869a2.16363,2.16363,0,0,0-2.18341,1.97471,2.1157,2.1157,0,0,0,2.11094,2.25631H29.4343A2.1157,2.1157,0,0,0,31.54524,36.04561Zm-15.26041-.54113a.29618.29618,0,0,0,.41882,0l1.4336-1.43358h-3.286Zm15.265-3.9894c0-2.18528-4.84632-7.49556-10.82455-7.49556S9.90071,28.94506,9.90071,31.51508a1.26713,1.26713,0,0,0,1.26716,1.26713H30.28265A1.26713,1.26713,0,0,0,31.54981,31.51508ZM20.54638,45.16135a9.83285,9.83285,0,0,1-1.4477-.11846c.07919.04469.16371.08221.24019.1304-.01985.0208-.03587.04469-.05544.06577h2.22884c.09116-.053.17477-.11537.2693-.16371A9.86564,9.86564,0,0,1,20.54638,45.16135Z" transform="translate(0 0)"/>
      <g>
        <path class="cls-2" d="M71.808,34.47978a8.699,8.699,0,0,1-3.32324,7.30957q-3.32373,2.57226-9.499,2.57128H44.29921V12.15849H57.975q12.82251,0,12.82276,7.792a6.0751,6.0751,0,0,1-.8086,3.08789,7.26788,7.26788,0,0,1-2.459,2.459,10.29139,10.29139,0,0,1-3.627,1.4375v.08985a10.21783,10.21783,0,0,1,4.10986,1.3584,8.03446,8.03446,0,0,1,2.80713,2.71679A6.43189,6.43189,0,0,1,71.808,34.47978ZM60.49013,21.63505q0-2.98681-4.69336-2.98731H54.00038v6.08594H56.807a3.98894,3.98894,0,0,0,2.64991-.86426A2.77962,2.77962,0,0,0,60.49013,21.63505Zm1.01074,12.7998a2.92761,2.92761,0,0,0-1.01074-2.29,3.87453,3.87453,0,0,0-2.67236-.89843H54.00038v6.5791h3.2334a4.88722,4.88722,0,0,0,3.12158-.90918A2.99818,2.99818,0,0,0,61.50087,34.43485Z" transform="translate(0 0)"/>
        <path class="cls-2" d="M83.44081,35.58036a3.22949,3.22949,0,0,0,1.70655,2.32422,7.69391,7.69391,0,0,0,3.8623.8418,15.90614,15.90614,0,0,0,6.333-1.28028v6.06348a22.75175,22.75175,0,0,1-8.44385,1.39258q-6.01832,0-9.36426-3.07617a10.92992,10.92992,0,0,1-3.34619-8.4668A13.96087,13.96087,0,0,1,75.65956,26.845,10.58057,10.58057,0,0,1,80.016,22.40946,12.87128,12.87128,0,0,1,86.38222,20.804a12.52216,12.52216,0,0,1,6.1084,1.39258,9.27091,9.27091,0,0,1,3.85107,3.90723,12.53375,12.53375,0,0,1,1.314,5.88379v3.59277Zm5.74854-5.00781q0-3.97558-2.85205-3.97461a2.41418,2.41418,0,0,0-1.99854,1.08887,5.43748,5.43748,0,0,0-.94287,2.88574Z" transform="translate(0 0)"/>
        <path class="cls-2" d="M113.71181,44.36063V40.8577H113.622a7.523,7.523,0,0,1-7.00635,4.06446,6.70505,6.70505,0,0,1-5.09766-1.93164,7.17084,7.17084,0,0,1-1.84131-5.165q0-6.78077,8.33106-7.85938l5.7041-.74121a2.174,2.174,0,0,0-1.01074-1.84082,4.60007,4.60007,0,0,0-2.71729-.71875,17.89853,17.89853,0,0,0-8.15136,2.2002V22.64579a21.812,21.812,0,0,1,4.67089-1.32519A27.13942,27.13942,0,0,1,111.309,20.804q5.86083,0,8.49951,2.50391,2.63892,2.50342,2.63867,8.36523v12.6875Zm-5.65918-7.81445a2.11872,2.11872,0,0,0,.59521,1.54883,2.26806,2.26806,0,0,0,1.69532.60644,3.014,3.014,0,0,0,2.43652-1.123,4.34886,4.34886,0,0,0,.93213-2.874v-.876l-3.23389.44922Q108.05287,34.68192,108.05263,36.54618Z" transform="translate(0 0)"/>
        <path class="cls-2" d="M144.05019,29.56181a7.48331,7.48331,0,0,0-1.46-.44922,7.38248,7.38248,0,0,0-1.52686-.20215q-4.73877,0-4.73828,5.47949v9.9707h-9.56641V21.36552h9.56641v4.042h.08984a7.17979,7.17979,0,0,1,2.49268-3.3125,6.40469,6.40469,0,0,1,3.77246-1.13379,3.24335,3.24335,0,0,1,1.37012.26953Z" transform="translate(0 0)"/>
        <path class="cls-1" d="M175.19716,34.47978a8.699,8.699,0,0,1-3.32324,7.30957q-3.32373,2.57226-9.499,2.57128H147.68837V12.15849h13.67578q12.82251,0,12.82276,7.792a6.0751,6.0751,0,0,1-.8086,3.08789,7.26788,7.26788,0,0,1-2.459,2.459,10.29139,10.29139,0,0,1-3.62695,1.4375v.08985a10.21783,10.21783,0,0,1,4.10986,1.3584,8.03446,8.03446,0,0,1,2.80713,2.71679A6.43189,6.43189,0,0,1,175.19716,34.47978ZM163.87929,21.63505q0-2.98681-4.69336-2.98731h-1.79639v6.08594h2.80664a3.98894,3.98894,0,0,0,2.64991-.86426A2.77962,2.77962,0,0,0,163.87929,21.63505ZM164.89,34.43485a2.92761,2.92761,0,0,0-1.01074-2.29,3.87453,3.87453,0,0,0-2.67236-.89843h-3.81739v6.5791h3.2334a4.88722,4.88722,0,0,0,3.12158-.90918A2.99818,2.99818,0,0,0,164.89,34.43485Z" transform="translate(0 0)"/>
        <path class="cls-1" d="M193.22988,44.36063V40.81278H193.14a12.59418,12.59418,0,0,1-2.14453,2.40235,8.243,8.243,0,0,1-2.15576,1.23535,7.62285,7.62285,0,0,1-2.7959.47168,6.95292,6.95292,0,0,1-5.749-2.44824q-1.97608-2.44629-1.97608-7.23047V21.36552h9.56641V34.5247q0,3.39111,2.5376,3.39062a2.4843,2.4843,0,0,0,2.09961-.91992,4.198,4.198,0,0,0,.70752-2.60547V21.36552h9.5664V44.36063Z" transform="translate(0 0)"/>
        <path class="cls-1" d="M224.66835,29.56181a7.48309,7.48309,0,0,0-1.46-.44922,7.38248,7.38248,0,0,0-1.52685-.20215q-4.73877,0-4.73828,5.47949v9.9707h-9.56641V21.36552h9.56641v4.042h.08984a7.17971,7.17971,0,0,1,2.49267-3.3125,6.4047,6.4047,0,0,1,3.77247-1.13379,3.24333,3.24333,0,0,1,1.37011.26953Z" transform="translate(0 0)"/>
        <path class="cls-1" d="M252.35732,41.1497q0,6.624-4.166,10.31836-4.16528,3.69434-12.16015,3.69433a25.36917,25.36917,0,0,1-4.17676-.33691,11.52785,11.52785,0,0,1-2.897-.76367v-7.5a14.46327,14.46327,0,0,0,6.80468,1.97558,7.97551,7.97551,0,0,0,5.14209-1.5498,5.004,5.004,0,0,0,1.93164-4.10938V41.46415H242.746a7.436,7.436,0,0,1-2.84082,2.51465,8.25353,8.25353,0,0,1-3.874.94336,8.68,8.68,0,0,1-7.02881-3.08789q-2.58252-3.0879-2.58252-8.52246a15.23556,15.23556,0,0,1,1.34765-6.57911,10.267,10.267,0,0,1,3.75-4.39062,9.63169,9.63169,0,0,1,5.29981-1.53809A6.63271,6.63271,0,0,1,242.746,23.7454h.08984V21.36552h9.52149Zm-9.36426-8.9375a5.16322,5.16322,0,0,0-.90967-3.21192,2.89018,2.89018,0,0,0-2.41406-1.19043,2.97287,2.97287,0,0,0-2.58252,1.4375,6.78272,6.78272,0,0,0-.96582,3.83985,6.64556,6.64556,0,0,0,.80859,3.52636,2.79081,2.79081,0,0,0,2.56006,1.30176,2.96664,2.96664,0,0,0,2.57129-1.33594,6.15336,6.15336,0,0,0,.93213-3.582Z" transform="translate(0 0)"/>
        <path class="cls-1" d="M265.20253,35.58036a3.22949,3.22949,0,0,0,1.70655,2.32422,7.69391,7.69391,0,0,0,3.8623.8418,15.90614,15.90614,0,0,0,6.333-1.28028v6.06348a22.75178,22.75178,0,0,1-8.44385,1.39258q-6.01832,0-9.36426-3.07617a10.92992,10.92992,0,0,1-3.34619-8.4668,13.96087,13.96087,0,0,1,1.47119-6.53418,10.58057,10.58057,0,0,1,4.35645-4.43555,12.87128,12.87128,0,0,1,6.36621-1.60547,12.52216,12.52216,0,0,1,6.1084,1.39258,9.27091,9.27091,0,0,1,3.85107,3.90723,12.53375,12.53375,0,0,1,1.314,5.88379v3.59277Zm5.74854-5.00781q0-3.97558-2.85205-3.97461a2.41417,2.41417,0,0,0-1.99854,1.08887,5.43739,5.43739,0,0,0-.94287,2.88574Z" transform="translate(0 0)"/>
        <path class="cls-1" d="M300.00966,29.56181a7.48309,7.48309,0,0,0-1.46-.44922,7.38248,7.38248,0,0,0-1.52686-.20215q-4.73875,0-4.73828,5.47949v9.9707h-9.5664V21.36552h9.5664v4.042h.08985a7.17971,7.17971,0,0,1,2.49267-3.3125,6.40469,6.40469,0,0,1,3.77246-1.13379,3.24335,3.24335,0,0,1,1.37012.26953Z" transform="translate(0 0)"/>
      </g>
    </g>
  </g>
</svg>
